<?xml version="1.0" standalone="no"?>
<!DOCTYPE svg PUBLIC "-//W3C//DTD SVG 20010904//EN"
 "http://www.w3.org/TR/2001/REC-SVG-20010904/DTD/svg10.dtd">
<svg version="1.0" xmlns="http://www.w3.org/2000/svg"
 width="64.000000pt" height="64.000000pt" viewBox="0 0 64.000000 64.000000"
 preserveAspectRatio="xMidYMid meet">

<g transform="translate(0.000000,64.000000) scale(0.100000,-0.100000)"
fill="#000000" stroke="none">
<path d="M100 612 c0 -5 9 -35 20 -67 26 -77 26 -81 -16 -128 -54 -59 -77
-119 -82 -213 -5 -94 10 -133 61 -164 29 -18 50 -19 282 -17 l250 2 0 155 0
155 -59 3 -59 3 33 17 c46 23 71 61 77 113 11 108 -112 185 -205 129 -94 -57
-94 -183 0 -240 l33 -20 -32 0 c-25 0 -36 7 -53 35 -12 19 -32 43 -46 54 -29
23 -30 41 -4 116 11 32 20 62 20 67 0 4 -49 8 -110 8 -60 0 -110 -4 -110 -8z
m100 -64 c-1 -58 -13 -51 -25 15 -6 30 -4 37 9 37 13 0 16 -11 16 -52z m39 25
c-1 -16 -5 -39 -9 -53 -6 -20 -8 -14 -9 28 -1 28 3 52 9 52 6 0 10 -12 9 -27z
m50 15 c-1 -22 -27 -84 -28 -67 -2 29 11 79 20 79 5 0 9 -6 8 -12z m-51 -115
c-16 -2 -40 -2 -55 0 -16 2 -3 4 27 4 30 0 43 -2 28 -4z m37 -53 c38 -24 68
-73 53 -88 -7 -7 -19 -5 -42 9 -38 23 -106 25 -147 4 -92 -48 -92 -202 0 -250
34 -17 103 -20 132 -5 13 7 19 7 19 0 0 -5 5 -10 11 -10 6 0 9 7 6 15 -4 8 -2
17 3 20 6 4 10 -10 9 -32 0 -21 -3 -32 -6 -25 -7 17 -23 15 -23 -3 0 -12 -14
-15 -72 -14 -145 1 -184 37 -174 166 8 109 51 189 119 222 44 22 63 20 112 -9z
m320 -180 c0 -12 -21 -16 -119 -18 -115 -3 -146 4 -131 27 4 8 47 11 128 9
101 -3 122 -6 122 -18z m0 -120 c0 -12 -21 -16 -119 -18 -115 -3 -146 4 -131
27 4 8 47 11 128 9 101 -3 122 -6 122 -18z"/>
<path d="M260 60 c0 -5 5 -10 10 -10 6 0 10 5 10 10 0 6 -4 10 -10 10 -5 0
-10 -4 -10 -10z"/>
</g>
</svg>
