<svg xmlns="http://www.w3.org/2000/svg" 
version="1.1" xmlns:xlink="http://www.w3.org/1999/xlink" 
xmlns:svgjs="http://svgjs.dev/svgjs" width="1000" height="578" viewBox="0 0 1000 578">
<g transform="matrix(1,0,0,1,-0.6060606060606233,-0.5466590594895706)">
<svg viewBox="0 0 396 229" data-background-color="#551e19" preserveAspectRatio="xMidYMid meet" height="578" width="1000"
 xmlns="http://www.w3.org/2000/svg" xmlns:xlink="http://www.w3.org/1999/xlink">
 <g id="tight-bounds" 
 transform="matrix(1,0,0,1,0.2400000000000091,0.21658291457286794)">
 <svg viewBox="0 0 395.52 228.56683417085426" 
 height="228.56683417085426" width="395.52"><g><svg viewBox="0 0 395.52 228.56683417085426" height="228.56683417085426" 
 width="395.52"><g><svg viewBox="0 0 395.52 228.56683417085426" height="228.56683417085426" width="395.52"><g><svg 
 viewBox="0 0 395.52 228.56683417085426" height="228.56683417085426" width="395.52"><g>
 <svg viewBox="0 0 395.52 228.56683417085426" height="228.56683417085426" width="395.52"><g transform="matrix(1,0,0,1,0,0)">
 <svg width="395.52" viewBox="4 -28.75 49.75 28.75" height="228.56683417085426" data-palette-color="#e6b17e">
 <path d=
 "M4-28.75L4-28.75 10.3-28.75 10.3 0 4 0 4-28.75ZM19.3-28.75L19.3-28.75 35.3-28.75 
 35.3-22.85 25.6-22.85 25.6-17.2 35.3-17.2 35.3-11.35 25.6-11.35 25.6 0 19.3 0 
 19.3-28.75ZM53.75 0L53.75 0 53.75-11.9 49.05-14.35 53.75-16.6 53.75-25.3 47.85-28.75 
 37.55-28.75 37.55-22.85 47.45-22.85 47.45-17.2 37.55-17.2 37.55-11.35 47.45-11.35 47.45 0 53.75 0Z"
  opacity="1" transform="matrix(1,0,0,1,0,0)" fill="#e6b17e" class="undefined-text-0" 
  data-fill-palette-color="primary" id="text-0">
  </path></svg></g></svg></g></svg></g></svg></g></svg></g><defs></defs></svg><rect 
  width="395.52" height="228.56683417085426" fill="none" stroke="none" visibility="hidden"></rect></g></svg></g></svg>